<?xml version="1.0" standalone="no"?>
<!DOCTYPE svg PUBLIC "-//W3C//DTD SVG 20010904//EN"
 "http://www.w3.org/TR/2001/REC-SVG-20010904/DTD/svg10.dtd">
<svg version="1.0" xmlns="http://www.w3.org/2000/svg"
 width="989.000000pt" height="989.000000pt" viewBox="0 0 989.000000 989.000000"
 preserveAspectRatio="xMidYMid meet">
<metadata>
Created by potrace 1.14, written by Peter Selinger 2001-2017
</metadata>
<g transform="translate(0.000000,989.000000) scale(0.100000,-0.100000)"
fill="#000000" stroke="none">
<path d="M838 6273 c-39 -17 -48 -29 -48 -69 0 -40 9 -47 100 -80 120 -43 155
-76 151 -144 -1 -33 -7 -72 -11 -77 -2 -2 -3 -6 -4 -10 -14 -54 -51 -173 -63
-203 -3 -8 -7 -19 -7 -25 -1 -5 -8 -30 -16 -55 -7 -25 -15 -49 -16 -55 -2 -5
-10 -30 -18 -55 -17 -51 -60 -191 -102 -328 -17 -59 -37 -103 -53 -118 -22
-22 -138 -83 -181 -96 -10 -3 -1 -14 28 -32 106 -66 108 -72 77 -176 -1 -3 -4
-12 -8 -20 -8 -23 -69 -222 -72 -240 -2 -8 -4 -16 -5 -17 -2 -2 -3 -6 -5 -10
-1 -5 -4 -15 -8 -23 -3 -8 -31 -100 -63 -205 -31 -104 -67 -213 -80 -241 -25
-53 -66 -104 -83 -104 -5 0 -11 -4 -13 -8 -5 -13 -89 -49 -168 -72 -118 -34
-142 -48 -160 -94 -7 -19 -5 -30 9 -47 14 -17 29 -22 77 -23 32 -1 75 1 94 4
19 3 50 3 67 -1 18 -3 33 -4 33 0 0 21 1248 18 1262 -3 5 -8 8 -8 8 0 0 6 17
9 43 7 52 -5 44 -5 150 -1 48 2 87 1 87 -2 0 -10 175 -5 182 5 5 6 8 6 8 -1 0
-14 40 -10 66 6 19 12 63 72 65 87 0 5 6 15 14 23 11 13 67 124 71 140 0 3 11
28 23 55 65 142 121 332 121 408 0 42 -25 77 -55 77 -24 0 -67 -47 -95 -105
-8 -16 -30 -54 -48 -82 -18 -29 -32 -55 -32 -58 0 -3 -8 -13 -17 -24 -10 -10
-29 -34 -43 -52 -49 -65 -191 -191 -220 -194 -3 -1 -23 -10 -45 -22 -120 -62
-272 -90 -480 -89 -179 1 -203 8 -243 66 -22 32 -24 42 -19 125 5 89 35 204
147 560 65 207 85 285 71 285 -3 0 -18 10 -33 23 -14 13 -43 32 -62 42 -35 19
-47 35 -25 35 21 0 159 73 183 96 13 14 28 41 34 62 5 20 40 136 77 257 37
121 88 291 115 377 50 166 73 220 115 266 33 37 117 78 208 102 139 35 163 51
182 117 12 43 -16 46 -304 38 -332 -10 -385 -10 -596 0 -279 13 -332 12 -367
-2z"/>
<path d="M3599 6241 c-122 -31 -211 -121 -244 -246 -45 -175 55 -321 215 -314
78 4 146 35 206 95 74 73 98 129 99 229 0 85 -21 146 -68 197 -44 47 -120 61
-208 39z"/>
<path d="M9376 5904 c-27 -14 -83 -60 -125 -102 -67 -68 -84 -94 -146 -217
-117 -234 -105 -225 -285 -225 -65 0 -131 -3 -148 -6 -18 -4 -57 -29 -88 -58
-48 -44 -57 -57 -57 -86 0 -60 25 -70 177 -70 140 -1 166 -8 166 -48 0 -37
-39 -63 -180 -124 l-44 -19 41 -24 c70 -39 96 -69 90 -101 -8 -46 -69 -208
-81 -216 -6 -4 -8 -8 -4 -8 4 0 -8 -42 -27 -92 -19 -51 -52 -142 -74 -203 -22
-60 -45 -118 -51 -127 -5 -10 -10 -22 -10 -27 0 -5 -5 -22 -12 -38 -6 -15 -12
-32 -14 -38 -2 -5 -15 -41 -30 -80 -52 -135 -39 -218 49 -307 103 -104 224
-104 432 -1 50 25 93 50 97 57 4 6 8 8 8 4 0 -10 124 78 200 140 62 51 192
182 230 231 82 106 110 199 71 235 -24 21 -27 19 -124 -69 -194 -178 -294
-240 -354 -219 -25 8 -28 15 -29 55 -1 50 42 199 58 199 5 0 7 4 4 9 -4 5 8
47 25 93 17 45 35 94 39 108 5 14 31 88 59 164 58 159 58 162 -22 214 -23 15
-43 30 -45 34 -6 14 -3 22 11 24 57 8 207 105 207 134 0 5 10 15 22 21 32 17
138 37 144 27 3 -4 8 -6 12 -4 4 2 51 7 105 11 54 4 111 10 127 15 17 5 30 7
30 4 0 -2 14 8 30 23 33 29 38 57 15 90 -23 33 -93 48 -280 59 -119 8 -117 8
-132 17 -26 16 -19 54 49 262 38 115 57 204 46 211 -4 3 -8 14 -8 25 0 11 -11
31 -25 44 -32 33 -84 32 -149 -1z"/>
<path d="M3380 5390 c-55 -17 -123 -51 -222 -111 -92 -55 -225 -143 -238 -158
-35 -40 -158 -98 -310 -146 -76 -24 -75 -24 -43 -54 34 -31 63 -75 63 -94 0
-19 33 -47 56 -47 23 0 124 57 124 69 0 5 13 23 29 40 27 29 31 30 61 19 36
-12 63 -35 73 -62 5 -14 -47 -160 -71 -201 -4 -5 -7 -14 -8 -20 -1 -5 -41
-104 -89 -220 -48 -115 -87 -216 -88 -222 0 -7 -4 -13 -9 -13 -4 0 -8 -5 -8
-11 0 -6 -6 -25 -14 -42 -96 -213 -104 -232 -110 -272 -12 -75 57 -174 152
-216 108 -48 270 -5 472 124 72 46 82 54 111 80 10 9 21 17 24 17 9 0 65 51
143 130 76 76 128 147 155 212 14 33 14 40 -1 70 -10 18 -24 34 -32 36 -8 1
-36 -18 -62 -42 -26 -24 -85 -71 -130 -105 -46 -34 -88 -65 -94 -70 -35 -29
-127 -72 -146 -69 -43 6 -33 46 87 345 64 158 120 297 125 308 5 11 23 54 39
95 l31 74 -23 33 c-12 18 -25 33 -29 33 -4 0 -23 11 -43 25 l-37 24 99 46 c97
45 143 82 143 115 0 9 4 20 9 26 8 9 34 80 36 99 4 42 -53 110 -120 141 -53
25 -65 27 -105 14z"/>
<path d="M4475 5393 c-11 -2 -27 -7 -35 -10 -8 -3 -19 -7 -25 -8 -54 -8 -176
-64 -259 -120 -67 -45 -114 -89 -162 -150 -48 -62 -53 -65 -141 -112 -40 -21
-69 -41 -65 -45 12 -11 71 -17 74 -7 3 9 216 80 303 101 73 17 125 19 125 5 0
-13 -52 -57 -66 -57 -4 0 -28 -10 -53 -22 -31 -15 -40 -24 -28 -26 9 -2 17 -8
17 -13 0 -5 7 -9 15 -9 8 0 33 -17 55 -39 l39 -38 -25 -69 c-14 -38 -32 -82
-39 -99 -11 -26 -131 -338 -202 -525 -13 -36 -28 -74 -33 -85 -50 -111 -80
-214 -80 -279 0 -43 4 -52 40 -87 83 -80 187 -108 260 -70 46 24 103 80 162
159 42 56 388 648 388 663 0 5 4 9 8 9 4 0 13 12 19 28 7 15 20 41 30 57 10
17 45 75 78 130 32 55 67 111 77 124 28 37 22 62 -29 108 -25 24 -45 44 -42
46 2 2 33 14 69 26 36 13 74 27 85 31 11 5 48 18 81 30 111 39 150 9 64 -49
-27 -19 -50 -37 -50 -40 0 -4 30 -20 68 -38 88 -41 118 -65 141 -116 31 -69
43 -80 89 -80 44 0 101 31 156 84 38 37 30 68 -29 111 -24 18 -44 35 -45 38 0
3 35 20 78 38 120 52 142 79 137 167 -5 79 -25 126 -73 174 -58 58 -101 71
-211 67 -73 -2 -96 -8 -150 -34 -89 -44 -121 -69 -251 -201 -118 -119 -135
-131 -277 -183 -35 -13 -63 -26 -63 -30 0 -4 15 -18 34 -30 19 -13 41 -36 49
-53 12 -26 12 -33 -7 -65 -11 -19 -23 -37 -26 -40 -4 -3 -35 -53 -69 -112 -34
-59 -68 -106 -74 -105 -22 4 -26 21 -12 47 8 14 35 74 60 134 l45 109 -21 32
c-12 17 -42 43 -67 57 l-46 26 50 21 c111 49 174 90 174 114 0 10 3 16 8 14
11 -7 6 122 -7 169 -26 95 -86 133 -211 131 -47 0 -94 -2 -105 -4z"/>
<path d="M6529 5396 c-2 -2 -22 -6 -44 -9 -140 -20 -338 -131 -500 -281 -43
-40 -83 -66 -143 -91 -46 -19 -87 -35 -92 -35 -4 0 -24 -7 -45 -16 l-37 -15
35 -27 c19 -15 42 -39 51 -53 15 -25 13 -30 -42 -140 -49 -97 -79 -165 -81
-184 0 -3 -7 -20 -14 -38 -53 -126 -82 -410 -52 -513 42 -146 170 -278 340
-349 62 -27 81 -30 175 -30 58 0 119 3 137 7 229 47 449 224 603 487 42 73 50
120 25 141 -24 20 -60 -2 -149 -87 -42 -40 -78 -73 -82 -73 -3 0 -20 -10 -37
-22 -18 -13 -34 -23 -37 -24 -3 0 -13 -4 -22 -8 -9 -4 -22 -8 -30 -10 -7 -1
-18 -5 -25 -9 -21 -13 -127 -17 -135 -4 -6 9 -8 9 -8 0 0 -14 -81 9 -119 34
-86 55 -148 190 -137 301 8 82 17 127 29 143 12 14 82 40 122 44 32 3 282 72
365 100 95 32 266 117 304 150 16 14 32 25 35 25 3 0 12 9 19 20 10 16 10 25
1 43 -13 23 -59 67 -71 67 -22 0 -3 18 30 29 20 7 65 29 99 47 53 29 63 40 69
68 12 67 -22 155 -84 213 -74 70 -190 103 -359 103 -49 0 -92 -2 -94 -4z m74
-151 c61 -16 98 -132 57 -182 -19 -24 -104 -73 -126 -73 -8 0 -14 -4 -14 -10
0 -5 -11 -10 -24 -10 -13 0 -29 -7 -36 -15 -10 -12 -10 -15 0 -15 19 0 81 -73
75 -88 -3 -8 -5 -18 -5 -23 0 -5 -5 -9 -10 -9 -6 0 -20 -9 -32 -20 -42 -39
-290 -140 -343 -140 -20 0 -19 22 4 108 l19 72 -32 33 c-17 18 -47 43 -66 55
l-34 21 49 21 c170 71 174 74 252 153 109 110 184 144 266 122z"/>
<path d="M7883 5381 c-114 -42 -250 -136 -368 -254 -71 -71 -146 -115 -269
-157 -54 -18 -55 -14 19 -71 54 -41 58 -51 56 -133 -3 -137 47 -258 207 -502
129 -196 147 -234 146 -306 -3 -87 -48 -138 -122 -138 -73 1 -134 44 -310 217
-85 84 -121 103 -175 89 -34 -8 -76 -54 -100 -106 -27 -61 -29 -190 -3 -240
35 -67 129 -137 211 -156 58 -13 239 -13 295 1 210 51 409 187 555 378 58 76
88 152 88 222 -1 74 -4 107 -13 120 -4 6 -10 21 -13 35 -9 35 -90 168 -165
270 -35 47 -73 98 -85 115 -37 50 -71 82 -106 100 -50 26 -174 75 -188 75 -27
0 -11 17 55 57 37 23 84 58 103 77 36 37 75 56 113 56 28 0 128 -49 121 -60
-3 -5 0 -10 7 -12 15 -5 -6 -41 -47 -82 l-25 -26 36 -15 c20 -8 43 -15 51 -15
8 0 23 -5 34 -10 10 -6 36 -12 56 -14 21 -3 43 -5 48 -6 37 -8 47 16 19 44 -8
9 -13 17 -10 17 12 3 22 6 41 14 11 4 53 20 93 36 86 32 133 62 149 94 12 28
8 98 -7 103 -5 2 -10 9 -10 15 0 32 -169 143 -257 169 -74 22 -169 21 -230 -1z"/>
</g>
</svg>
